<svg xmlns="http://www.w3.org/2000/svg" width="430" height="291" viewBox="0 0 430 291" fill="none">
    <g filter="url(#filter0_bd_248_845)">
        <path d="M30 50.8828C30 39.8371 38.9543 30.8828 50 30.8828H380C391.046 30.8828 400 39.8371 400 50.8828V240.883C400 251.929 391.046 260.883 380 260.883H50C38.9543 260.883 30 251.928 30 240.883V50.8828Z" fill="#2727AC" fill-opacity="0.5" shape-rendering="crispEdges"/>
        <path d="M31.5 50.8828C31.5 40.6655 39.7827 32.3828 50 32.3828H380C390.217 32.3828 398.5 40.6655 398.5 50.8828V240.883C398.5 251.1 390.217 259.383 380 259.383H50C39.7827 259.383 31.5 251.1 31.5 240.883V50.8828Z" stroke="#3EDC80" stroke-width="3" shape-rendering="crispEdges"/>
    </g>
    <defs>
        <filter id="filter0_bd_248_845" x="0" y="0.882812" width="430" height="290" filterUnits="userSpaceOnUse" color-interpolation-filters="sRGB">
            <feFlood flood-opacity="0" result="BackgroundImageFix"/>
            <feGaussianBlur in="BackgroundImageFix" stdDeviation="2.5"/>
            <feComposite in2="SourceAlpha" operator="in" result="effect1_backgroundBlur_248_845"/>
            <feColorMatrix in="SourceAlpha" type="matrix" values="0 0 0 0 0 0 0 0 0 0 0 0 0 0 0 0 0 0 127 0" result="hardAlpha"/>
            <feOffset/>
            <feGaussianBlur stdDeviation="15"/>
            <feComposite in2="hardAlpha" operator="out"/>
            <feColorMatrix type="matrix" values="0 0 0 0 0.301961 0 0 0 0 0.94902 0 0 0 0 0.572549 0 0 0 1 0"/>
            <feBlend mode="normal" in2="effect1_backgroundBlur_248_845" result="effect2_dropShadow_248_845"/>
            <feBlend mode="normal" in="SourceGraphic" in2="effect2_dropShadow_248_845" result="shape"/>
        </filter>
    </defs>
</svg>