<svg width="25" height="25" viewBox="0 0 25 25" fill="none" xmlns="http://www.w3.org/2000/svg">
    <g clip-path="url(#clip0_516_1710)">
        <path d="M12.5002 0.833374C18.9433 0.833374 24.1668 6.05686 24.1668 12.5C24.1668 18.9432 18.9433 24.1667 12.5002 24.1667C6.05698 24.1667 0.833496 18.9432 0.833496 12.5C0.833496 6.05686 6.05698 0.833374 12.5002 0.833374ZM2.42441 12.5C2.42441 15.1723 3.48595 17.7351 5.37553 19.6247C7.2651 21.5142 9.8279 22.5758 12.5002 22.5758C15.1724 22.5758 17.7352 21.5142 19.6248 19.6247C21.5144 17.7351 22.5759 15.1723 22.5759 12.5C22.5759 9.82778 21.5144 7.26497 19.6248 5.3754C17.7352 3.48583 15.1724 2.42428 12.5002 2.42428C9.8279 2.42428 7.2651 3.48583 5.37553 5.3754C3.48595 7.26497 2.42441 9.82778 2.42441 12.5Z" fill="#E14D63"/>
        <path d="M12.5 5.51501V14.6817" stroke="#E14D63" stroke-width="2.7" stroke-linecap="round"/>
        <path d="M11.6182 20.1496C11.8637 20.3932 12.1609 20.515 12.5097 20.515C12.8585 20.515 13.1492 20.3932 13.3818 20.1496C13.6273 19.8932 13.75 19.5983 13.75 19.265C13.75 18.9317 13.6273 18.6432 13.3818 18.3996C13.1492 18.1432 12.8585 18.015 12.5097 18.015C12.1609 18.015 11.8637 18.1432 11.6182 18.3996C11.3727 18.6432 11.25 18.9317 11.25 19.265C11.25 19.5983 11.3727 19.8932 11.6182 20.1496Z" fill="#E14D63"/>
    </g>
    <defs>
        <clipPath id="clip0_516_1710">
            <rect width="25" height="25" fill="white"/>
        </clipPath>
    </defs>
</svg>
