<svg width="40" height="30" viewBox="0 0 40 30" fill="none" xmlns="http://www.w3.org/2000/svg">
    <path id="Vector"
          d="M38.9269 14.0929C37.1593 5.92168 34.4991 1.56038 30.5531 0.36908C29.7236 0.120259 28.8632 -0.00403287 27.9987 9.97558e-05C26.8562 9.97558e-05 25.8611 0.284717 24.8086 0.586378C23.5402 0.950246 22.0992 1.36354 19.9983 1.36354C17.8973 1.36354 16.4556 0.951098 15.1847 0.58723C14.1313 0.284717 13.1371 9.97558e-05 11.9978 9.97558e-05C11.104 -0.00311361 10.214 0.120782 9.35351 0.368228C5.42828 1.55442 2.76979 5.91401 0.976356 14.0878C-0.952088 22.8837 -0.00286703 28.4372 3.63818 29.7256C4.13726 29.9055 4.6624 29.9983 5.1916 30C7.68591 30 9.68602 27.8756 11.0528 26.1364C12.597 24.1679 14.4046 23.1692 19.9983 23.1692C24.9944 23.1692 27.062 23.862 28.848 26.1364C29.9705 27.5663 31.0314 28.5667 32.0898 29.1964C33.4974 30.0332 34.9041 30.219 36.2701 29.7392C38.4218 28.9885 39.6553 27.0038 39.9369 23.839C40.1511 21.412 39.8211 18.2242 38.9269 14.0929ZM15.9981 13.6345H13.3312V16.3614C13.3312 16.723 13.1907 17.0698 12.9407 17.3255C12.6906 17.5812 12.3515 17.7248 11.9978 17.7248C11.6442 17.7248 11.305 17.5812 11.055 17.3255C10.8049 17.0698 10.6644 16.723 10.6644 16.3614V13.6345H7.99759C7.64395 13.6345 7.30479 13.4908 7.05473 13.2351C6.80467 12.9794 6.66418 12.6327 6.66418 12.271C6.66418 11.9094 6.80467 11.5626 7.05473 11.3069C7.30479 11.0513 7.64395 10.9076 7.99759 10.9076H10.6644V8.18073C10.6644 7.81912 10.8049 7.47233 11.055 7.21663C11.305 6.96094 11.6442 6.81729 11.9978 6.81729C12.3515 6.81729 12.6906 6.96094 12.9407 7.21663C13.1907 7.47233 13.3312 7.81912 13.3312 8.18073V10.9076H15.9981C16.3517 10.9076 16.6909 11.0513 16.9409 11.3069C17.191 11.5626 17.3315 11.9094 17.3315 12.271C17.3315 12.6327 17.191 12.9794 16.9409 13.2351C16.6909 13.4908 16.3517 13.6345 15.9981 13.6345ZM22.9985 13.9753C22.6688 13.9753 22.3465 13.8754 22.0725 13.6881C21.7984 13.5008 21.5847 13.2347 21.4586 12.9233C21.3324 12.6118 21.2994 12.2692 21.3637 11.9386C21.428 11.608 21.5868 11.3043 21.8199 11.0659C22.053 10.8276 22.35 10.6653 22.6733 10.5995C22.9966 10.5337 23.3317 10.5675 23.6363 10.6965C23.9409 10.8255 24.2012 11.0439 24.3843 11.3242C24.5675 11.6045 24.6652 11.934 24.6652 12.271C24.6652 12.7231 24.4896 13.1565 24.177 13.4762C23.8645 13.7958 23.4405 13.9753 22.9985 13.9753ZM26.6653 17.7248C26.3355 17.7248 26.0131 17.6247 25.7389 17.4373C25.4647 17.2498 25.2511 16.9834 25.125 16.6717C24.999 16.3601 24.9663 16.0172 25.0309 15.6864C25.0956 15.3557 25.2547 15.0521 25.4882 14.8139C25.7218 14.5757 26.0191 14.4137 26.3427 14.3484C26.6663 14.2832 27.0016 14.3175 27.3061 14.4472C27.6106 14.5768 27.8706 14.7959 28.0532 15.0767C28.2359 15.3576 28.3329 15.6875 28.3321 16.0248C28.331 16.476 28.1549 16.9084 27.8424 17.2271C27.53 17.5458 27.1067 17.7248 26.6653 17.7248ZM26.6653 10.2259C26.3357 10.2259 26.0134 10.1259 25.7393 9.93866C25.4652 9.75139 25.2516 9.48522 25.1254 9.17379C24.9993 8.86238 24.9663 8.5197 25.0306 8.1891C25.0949 7.85849 25.2537 7.55482 25.4868 7.31647C25.7199 7.07812 26.0168 6.9158 26.3402 6.85004C26.6635 6.78428 26.9986 6.81803 27.3032 6.94702C27.6077 7.07602 27.868 7.29446 28.0512 7.57473C28.2343 7.855 28.3321 8.18451 28.3321 8.52159C28.3321 8.9736 28.1565 9.40709 27.8439 9.72671C27.5313 10.0463 27.1074 10.2259 26.6653 10.2259ZM30.3322 13.9753C30.0026 13.9753 29.6803 13.8754 29.4062 13.6881C29.1321 13.5008 28.9185 13.2347 28.7923 12.9233C28.6662 12.6118 28.6332 12.2692 28.6975 11.9386C28.7618 11.608 28.9205 11.3043 29.1536 11.0659C29.3867 10.8276 29.6837 10.6653 30.007 10.5995C30.3304 10.5337 30.6655 10.5675 30.9701 10.6965C31.2746 10.8255 31.5349 11.0439 31.7181 11.3242C31.9012 11.6045 31.999 11.934 31.999 12.271C31.999 12.7231 31.8234 13.1565 31.5108 13.4762C31.1982 13.7958 30.7743 13.9753 30.3322 13.9753Z"
          fill="currentColor"/>
</svg>
