<svg width="3400" height="2440.08" viewBox="0 0 2000 2717" fill="none" xmlns="http://www.w3.org/2000/svg">
    <g filter="url(#filter0_f_271_1773)">
        <path d="M114.255 1379.53C-608.849 1124.85 -16.1653 737.392 370.564 575.499C665.599 463.526 1136.82 308.122 661.419 582.294C67.1693 925.008 437.101 984.858 1271.76 1013.2C2106.43 1041.54 1018.13 1697.89 114.255 1379.53Z"
              fill="#9D55E5" fill-opacity="0.6"/>
    </g>
    <g filter="url(#filter1_f_271_1773)">
        <path d="M1955.62 452.65C2678.81 667.625 2082.02 1172.96 1693.23 1398.76C1396.7 1557.84 923.242 1785.12 1401.69 1421.63C1999.75 967.272 1629.29 937.82 792.731 993.334C-43.8325 1048.85 1051.63 183.931 1955.62 452.65Z"
              fill="#0FA7B1" fill-opacity="0.5"/>
    </g>
    <defs>
        <filter id="filter0_f_271_1773" x="-626.824" y="29.0907" width="2596.97" height="1837.38"
                filterUnits="userSpaceOnUse" color-interpolation-filters="sRGB">
            <feFlood flood-opacity="0" result="BackgroundImageFix"/>
            <feBlend mode="normal" in="SourceGraphic" in2="BackgroundImageFix" result="shape"/>
            <feGaussianBlur stdDeviation="200" result="effect1_foregroundBlur_271_1773"/>
        </filter>
        <filter id="filter1_f_271_1773" x="94.3774" y="0.746277" width="2601.19" height="2015.71"
                filterUnits="userSpaceOnUse" color-interpolation-filters="sRGB">
            <feFlood flood-opacity="0" result="BackgroundImageFix"/>
            <feBlend mode="normal" in="SourceGraphic" in2="BackgroundImageFix" result="shape"/>
            <feGaussianBlur stdDeviation="200" result="effect1_foregroundBlur_271_1773"/>
        </filter>
    </defs>
</svg>
