<svg width="25" height="25" viewBox="0 0 25 25" fill="none" xmlns="http://www.w3.org/2000/svg">
    <g clip-path="url(#clip0_516_367)">
        <path d="M10.7581 7.30217C10.4901 7.49003 10.2753 7.74643 10.1352 8.04565C10.0163 8.26823 9.81735 8.43507 9.58024 8.51102C9.34312 8.58698 9.08636 8.56611 8.86403 8.45283C8.6417 8.33955 8.47116 8.14269 8.38833 7.90373C8.30551 7.66476 8.31686 7.40234 8.42 7.17174C8.67581 6.64739 9.07615 6.09435 9.6952 5.67435C10.3194 5.24783 11.1085 5 12.0755 5C12.9171 5 13.8265 5.25435 14.5491 5.80739C14.952 6.10773 15.2787 6.50186 15.5021 6.95697C15.7255 7.41208 15.839 7.91501 15.8333 8.42391C15.8333 9.7713 15.1771 10.6674 14.5197 11.313C14.2767 11.5517 14.0094 11.78 13.7792 11.9757L13.5911 12.1361C13.3939 12.3006 13.208 12.4789 13.0348 12.6696V14.4565C13.0348 14.716 12.9337 14.9648 12.7538 15.1483C12.5739 15.3317 12.3299 15.4348 12.0755 15.4348C11.8211 15.4348 11.5771 15.3317 11.3972 15.1483C11.2173 14.9648 11.1162 14.716 11.1162 14.4565V12.5352C11.1162 12.2261 11.2019 11.8778 11.4321 11.5752C11.7135 11.21 12.0537 10.9009 12.3505 10.6439L12.5845 10.4443L12.5858 10.443C12.8058 10.2565 13.0002 10.0909 13.187 9.90565C13.6577 9.44261 13.9147 9.02391 13.9147 8.42391C13.9204 8.2188 13.8762 8.01545 13.786 7.832C13.6958 7.64856 13.5625 7.49074 13.398 7.37261C13.0552 7.11044 12.5666 6.95652 12.0755 6.95652C11.4436 6.95652 11.0344 7.11435 10.7581 7.30217ZM13.3545 18.6957C13.3545 19.0416 13.2198 19.3734 12.9799 19.618C12.74 19.8626 12.4147 20 12.0755 20C11.7363 20 11.4109 19.8626 11.1711 19.618C10.9312 19.3734 10.7965 19.0416 10.7965 18.6957C10.7965 18.3497 10.9312 18.018 11.1711 17.7733C11.4109 17.5287 11.7363 17.3913 12.0755 17.3913C12.4147 17.3913 12.74 17.5287 12.9799 17.7733C13.2198 18.018 13.3545 18.3497 13.3545 18.6957Z"
              fill="currentColor"/>
        <path d="M12.5002 0.833374C18.9433 0.833374 24.1668 6.05686 24.1668 12.5C24.1668 18.9432 18.9433 24.1667 12.5002 24.1667C6.05698 24.1667 0.833496 18.9432 0.833496 12.5C0.833496 6.05686 6.05698 0.833374 12.5002 0.833374ZM2.42441 12.5C2.42441 15.1723 3.48595 17.7351 5.37553 19.6247C7.2651 21.5142 9.8279 22.5758 12.5002 22.5758C15.1724 22.5758 17.7352 21.5142 19.6248 19.6247C21.5144 17.7351 22.5759 15.1723 22.5759 12.5C22.5759 9.82778 21.5144 7.26497 19.6248 5.3754C17.7352 3.48583 15.1724 2.42428 12.5002 2.42428C9.8279 2.42428 7.2651 3.48583 5.37553 5.3754C3.48595 7.26497 2.42441 9.82778 2.42441 12.5Z"
              fill="currentColor"/>
    </g>
    <defs>
        <clipPath id="clip0_516_367">
            <rect width="25" height="25" fill="currentColor"/>
        </clipPath>
    </defs>
</svg>
