<svg width="52" height="42" viewBox="0 0 52 42" fill="none" xmlns="http://www.w3.org/2000/svg">
<g id="&#208;&#187;&#208;&#190;&#208;&#179;&#208;&#190;">
<path id="G" d="M14.4786 29.5219C11.5748 29.5219 9.03401 28.9976 6.85617 27.949C4.67833 26.8735 2.98445 25.3947 1.77454 23.5126C0.591512 21.6036 0 19.3989 0 16.8984C0 14.4248 0.430191 12.1529 1.29057 10.0826C2.17784 8.01231 3.42808 6.22432 5.0413 4.71866C6.65452 3.21299 8.56349 2.05685 10.7682 1.25024C12.9998 0.416747 15.46 0 18.1487 0C21.1062 0 23.6471 0.470521 25.7711 1.41156C27.9221 2.32572 29.6563 3.69695 30.9737 5.52526L24.1579 10.8085C23.2438 9.62552 22.2758 8.81891 21.2541 8.38872C20.2324 7.93164 19.0494 7.7031 17.705 7.7031C16.4682 7.7031 15.3524 7.9182 14.3576 8.34839C13.3628 8.7517 12.5024 9.34321 11.7765 10.1229C11.0774 10.8758 10.5397 11.7765 10.1633 12.8251C9.78684 13.8737 9.59863 15.0298 9.59863 16.2935C9.59863 17.3958 9.84062 18.3638 10.3246 19.1973C10.8354 20.0308 11.5479 20.6761 12.4621 21.1331C13.4031 21.5902 14.5189 21.8187 15.8095 21.8187C16.885 21.8187 17.9605 21.644 19.0359 21.2944C20.1114 20.918 21.2138 20.2862 22.343 19.3989L25.9324 26.1744C24.4537 27.2499 22.7329 28.0834 20.7702 28.6749C18.8074 29.2395 16.7102 29.5219 14.4786 29.5219ZM17.947 24.7225L20.0845 13.9946H28.3523L25.9324 26.1744L17.947 24.7225Z" fill="#E9E9EB"/>
<path id="p" d="M40.4089 35.052C38.823 35.052 37.4259 34.7247 36.2176 34.0702C35.0344 33.4157 34.1785 32.3081 33.6499 30.7474C33.1464 29.1866 33.1086 27.0595 33.5366 24.3659C33.9142 22.1255 34.5184 20.2123 35.3491 18.6264C36.1798 17.0153 37.2245 15.7818 38.4831 14.9259C39.767 14.07 41.2396 13.6421 42.9011 13.6421C44.2856 13.6421 45.6198 14.0197 46.9036 14.7749C48.2126 15.5049 49.2825 16.5748 50.1132 17.9845C50.9691 19.3942 51.3971 21.1312 51.3971 23.1954C51.3971 24.882 51.1076 26.4553 50.5286 27.9154C49.9496 29.3502 49.1441 30.6089 48.1119 31.6914C47.105 32.7486 45.9345 33.5794 44.6003 34.1835C43.2913 34.7625 41.8941 35.052 40.4089 35.052ZM24.0588 41.9998L29.6473 14.0197H37.6902L37.1238 16.8139L35.7267 24.3659L34.6316 31.8424L32.5926 41.9998H24.0588ZM39.0118 28.3307C39.767 28.3307 40.4215 28.1419 40.9753 27.7643C41.5291 27.3616 41.9571 26.8077 42.2591 26.1029C42.5864 25.398 42.75 24.5673 42.75 23.6107C42.75 22.6541 42.4731 21.8738 41.9193 21.2696C41.3907 20.6654 40.6481 20.3634 39.6915 20.3634C38.9614 20.3634 38.3069 20.5648 37.728 20.9675C37.1741 21.3451 36.7336 21.8864 36.4064 22.5912C36.1043 23.2961 35.9532 24.1268 35.9532 25.0834C35.9532 26.04 36.2176 26.8203 36.7462 27.4245C37.3 28.0286 38.0552 28.3307 39.0118 28.3307Z" fill="#3EDC80"/>
</g>
</svg>
