<svg width="173" height="80" viewBox="0 0 173 80" fill="none" xmlns="http://www.w3.org/2000/svg">
<g id="LOGO">
<g id="Gabe">
<path d="M14.838 30.6335C11.9871 30.6335 9.49252 30.1188 7.35434 29.0893C5.21617 28.0334 3.55314 26.5816 2.36526 24.7338C1.20379 22.8595 0.623047 20.695 0.623047 18.24C0.623047 15.8115 1.0454 13.5809 1.89011 11.5483C2.76122 9.51574 3.9887 7.76033 5.57253 6.28208C7.15636 4.80384 9.03057 3.66875 11.1951 2.87684C13.3861 2.05852 15.8015 1.64937 18.4412 1.64937C21.3449 1.64937 23.8394 2.11132 25.9248 3.03522C28.0366 3.93273 29.7392 5.27899 31.0327 7.074L24.341 12.2611C23.4435 11.0996 22.4932 10.3077 21.4901 9.8853C20.487 9.43655 19.3255 9.21217 18.0056 9.21217C16.7914 9.21217 15.6959 9.42335 14.7192 9.84571C13.7425 10.2417 12.8978 10.8224 12.185 11.5879C11.4987 12.327 10.9708 13.2114 10.6012 14.2408C10.2316 15.2703 10.0469 16.4054 10.0469 17.6461C10.0469 18.7284 10.2844 19.6787 10.7596 20.497C11.2611 21.3153 11.9607 21.9488 12.8582 22.3976C13.7821 22.8463 14.8776 23.0707 16.1446 23.0707C17.2005 23.0707 18.2564 22.8991 19.3123 22.556C20.3682 22.1864 21.4505 21.5661 22.5592 20.695L26.0832 27.3471C24.6313 28.403 22.9419 29.2213 21.0149 29.802C19.0879 30.3564 17.0289 30.6335 14.838 30.6335ZM18.2432 25.9216L20.3418 15.3891H28.4589L26.0832 27.3471L18.2432 25.9216Z" fill="#E9E9EB"/>
<path d="M37.9443 30.396C36.5189 30.396 35.1198 30.0132 33.7471 29.2477C32.3745 28.4558 31.2394 27.3207 30.3419 25.8424C29.4708 24.3378 29.0352 22.5164 29.0352 20.3782C29.0352 18.5832 29.3388 16.9334 29.9459 15.4287C30.5531 13.9241 31.3846 12.6174 32.4405 11.5087C33.5228 10.3737 34.7502 9.50254 36.1229 8.89541C37.5219 8.26187 39.0002 7.94511 40.5576 7.94511C42.2471 7.94511 43.7121 8.28827 44.9528 8.9746C46.1934 9.66093 47.0777 10.8224 47.6057 12.459C48.16 14.0693 48.2128 16.2998 47.7641 19.1507C47.3945 21.4737 46.761 23.4799 45.8635 25.1693C44.9924 26.8587 43.8969 28.1522 42.577 29.0497C41.2572 29.9472 39.7129 30.396 37.9443 30.396ZM41.31 23.3479C42.1019 23.3479 42.7882 23.1499 43.3689 22.754C43.9497 22.3316 44.3984 21.7509 44.7152 21.0117C45.0584 20.2726 45.2299 19.4015 45.2299 18.3984C45.2299 17.3953 44.9396 16.577 44.3588 15.9435C43.8045 15.3099 43.0258 14.9932 42.0227 14.9932C41.2572 14.9932 40.5708 15.2043 39.9637 15.6267C39.383 16.0227 38.921 16.5902 38.5778 17.3293C38.2611 18.0684 38.1027 18.9396 38.1027 19.9427C38.1027 20.9457 38.3799 21.7641 38.9342 22.3976C39.5149 23.0311 40.3069 23.3479 41.31 23.3479ZM43.4085 30L44.0025 27.0699L45.4675 19.1507L46.6158 11.3108L47.2097 8.34106H56.1584L51.8425 30H43.4085Z" fill="#E9E9EB"/>
<path d="M54.5823 30L60.4425 0.619873H69.3912L67.253 11.3108L65.3128 19.1507L63.9665 25.6445L63.0954 30H54.5823ZM70.1831 30.396C68.7576 30.396 67.4773 30.1584 66.3423 29.6832C65.2072 29.1817 64.3097 28.3634 63.6497 27.2283C63.0162 26.0668 62.6995 24.5094 62.6995 22.556C62.6995 20.7082 62.9106 18.9132 63.333 17.1709C63.7553 15.4287 64.3889 13.8713 65.2336 12.4986C66.0783 11.0996 67.1342 9.99089 68.4013 9.17258C69.6683 8.35426 71.1334 7.94511 72.7964 7.94511C74.2482 7.94511 75.6473 8.34107 76.9936 9.13298C78.3662 9.8985 79.4881 11.0204 80.3592 12.4986C81.2567 13.9769 81.7055 15.7983 81.7055 17.9629C81.7055 19.7315 81.4019 21.3813 80.7948 22.9123C80.1876 24.417 79.3429 25.7368 78.2606 26.8719C77.2047 27.9806 75.9773 28.8517 74.5782 29.4853C73.2056 30.0924 71.7405 30.396 70.1831 30.396ZM68.718 23.3479C69.5099 23.3479 70.1963 23.1499 70.777 22.754C71.3577 22.3316 71.8065 21.7509 72.1233 21.0117C72.4664 20.2726 72.638 19.4015 72.638 18.3984C72.638 17.3953 72.3476 16.577 71.7669 15.9435C71.2126 15.3099 70.4338 14.9932 69.4307 14.9932C68.6652 14.9932 67.9789 15.2043 67.3718 15.6267C66.791 16.0227 66.3291 16.5902 65.9859 17.3293C65.6691 18.0684 65.5108 18.9396 65.5108 19.9427C65.5108 20.9457 65.7879 21.7641 66.3423 22.3976C66.923 23.0311 67.7149 23.3479 68.718 23.3479Z" fill="#E9E9EB"/>
<path d="M94.0275 30.396C91.6517 30.396 89.5664 29.9868 87.7714 29.1685C86.0027 28.3502 84.6169 27.1887 83.6138 25.6841C82.6107 24.1794 82.1092 22.4108 82.1092 20.3782C82.1092 18.0025 82.6635 15.8775 83.7722 14.0033C84.8809 12.1291 86.4383 10.6508 88.4445 9.56854C90.4771 8.48625 92.8396 7.94511 95.5322 7.94511C97.8551 7.94511 99.8349 8.35426 101.472 9.17258C103.108 9.99089 104.362 11.1128 105.233 12.5382C106.104 13.9637 106.54 15.6135 106.54 17.4877C106.54 18.1476 106.487 18.7944 106.381 19.4279C106.302 20.0614 106.197 20.6686 106.065 21.2493H89.2364L90.0679 16.9334H101.947L98.2247 18.0816C98.4359 17.2369 98.4226 16.5242 98.1851 15.9435C97.9739 15.3363 97.6043 14.8744 97.0764 14.5576C96.5484 14.2145 95.9017 14.0429 95.1362 14.0429C94.0539 14.0429 93.196 14.3332 92.5625 14.914C91.9289 15.4947 91.467 16.247 91.1766 17.1709C90.9126 18.0948 90.7806 19.0583 90.7806 20.0614C90.7806 21.4077 91.137 22.3712 91.8497 22.9519C92.5889 23.5063 93.6579 23.7835 95.057 23.7835C95.8753 23.7835 96.6936 23.6647 97.5119 23.4271C98.3303 23.1631 99.0826 22.7804 99.7689 22.2788L103.491 27.7034C102.013 28.7065 100.468 29.4061 98.8582 29.802C97.2744 30.198 95.6641 30.396 94.0275 30.396Z" fill="#E9E9EB"/>
</g>
<g id="pay">
<path d="M65.145 53.4509C63.482 53.4509 62.0169 53.1077 60.7499 52.4214C59.5092 51.735 58.6117 50.5736 58.0573 48.9369C57.5294 47.3003 57.4898 45.0697 57.9386 42.2452C58.3345 39.8959 58.9681 37.8897 59.8392 36.2267C60.7103 34.5372 61.8058 33.2438 63.1256 32.3463C64.4719 31.4488 66.0161 31 67.7583 31C69.2102 31 70.6092 31.396 71.9555 32.1879C73.3281 32.9534 74.45 34.0753 75.3211 35.5535C76.2186 37.0318 76.6674 38.8532 76.6674 41.0178C76.6674 42.7864 76.3638 44.4362 75.7567 45.9672C75.1496 47.4719 74.3048 48.7917 73.2226 49.9268C72.1667 51.0355 70.9392 51.9066 69.5401 52.5401C68.1675 53.1473 66.7024 53.4509 65.145 53.4509ZM48 60.7365L53.8602 31.396H62.2941L61.7002 34.3261L60.2351 42.2452L59.0868 50.0852L56.9487 60.7365H48ZM63.68 46.4028C64.4719 46.4028 65.1582 46.2048 65.7389 45.8089C66.3197 45.3865 66.7684 44.8058 67.0852 44.0666C67.4284 43.3275 67.6 42.4564 67.6 41.4533C67.6 40.4502 67.3096 39.6319 66.7288 38.9984C66.1745 38.3648 65.3958 38.0481 64.3927 38.0481C63.6272 38.0481 62.9408 38.2592 62.3337 38.6816C61.753 39.0776 61.291 39.6451 60.9478 40.3842C60.6311 41.1233 60.4727 41.9944 60.4727 42.9975C60.4727 44.0006 60.7499 44.819 61.3042 45.4525C61.8849 46.086 62.6769 46.4028 63.68 46.4028Z" fill="#4DF292"/>
<path d="M85.9802 53.4509C84.5547 53.4509 83.1557 53.0681 81.783 52.3026C80.4103 51.5107 79.2753 50.3756 78.3778 48.8973C77.5066 47.3927 77.0711 45.5713 77.0711 43.4331C77.0711 41.6381 77.3747 39.9883 77.9818 38.4836C78.5889 36.979 79.4204 35.6723 80.4763 34.5636C81.5586 33.4285 82.7861 32.5574 84.1587 31.9503C85.5578 31.3168 87.036 31 88.5935 31C90.2829 31 91.748 31.3432 92.9886 32.0295C94.2293 32.7158 95.1136 33.8773 95.6415 35.5139C96.1959 37.1242 96.2487 39.3547 95.7999 42.2056C95.4304 44.5286 94.7968 46.5348 93.8993 48.2242C93.0282 49.9136 91.9327 51.2071 90.6129 52.1046C89.293 53.0021 87.7488 53.4509 85.9802 53.4509ZM89.3458 46.4028C90.1377 46.4028 90.8241 46.2048 91.4048 45.8089C91.9855 45.3865 92.4343 44.8058 92.751 44.0666C93.0942 43.3275 93.2658 42.4564 93.2658 41.4533C93.2658 40.4502 92.9754 39.6319 92.3947 38.9984C91.8403 38.3648 91.0616 38.0481 90.0585 38.0481C89.293 38.0481 88.6067 38.2592 87.9995 38.6816C87.4188 39.0776 86.9569 39.6451 86.6137 40.3842C86.2969 41.1233 86.1385 41.9944 86.1385 42.9975C86.1385 44.0006 86.4157 44.819 86.9701 45.4525C87.5508 46.086 88.3427 46.4028 89.3458 46.4028ZM91.4444 53.0549L92.0383 50.1248L93.5034 42.2056L94.6517 34.3656L95.2456 31.396H104.194L99.8783 53.0549H91.4444Z" fill="#4DF292"/>
<path d="M106.182 61.1324C104.994 61.1324 103.819 60.9609 102.658 60.6177C101.47 60.2745 100.52 59.8258 99.8068 59.2714L103.687 53.0549C104.136 53.3981 104.638 53.6752 105.192 53.8864C105.746 54.0976 106.327 54.2032 106.934 54.2032C107.647 54.2032 108.228 54.0316 108.676 53.6884C109.125 53.3717 109.547 52.8833 109.943 52.2234L111.329 49.9268L112.002 49.0557L122.337 31.396H131.088L117.783 53.4904C116.595 55.4702 115.434 57.0145 114.299 58.1232C113.164 59.2318 111.936 60.0106 110.617 60.4593C109.323 60.9081 107.845 61.1324 106.182 61.1324ZM109.31 54.0448L104.4 31.396H113.309L116.516 48.2638L109.31 54.0448Z" fill="#4DF292"/>
</g>
</g>
</svg>
