<svg width="48" height="45" viewBox="0 0 48 45" fill="none" xmlns="http://www.w3.org/2000/svg">
    <g id="&#208;&#184;&#208;&#186;&#208;&#190;&#208;&#189;&#208;&#186;&#208;&#176; &#208;&#180;&#208;&#181;&#208;&#189;&#208;&#181;&#208;&#179;">
        <path id="Vector" fill-rule="evenodd" clip-rule="evenodd"
              d="M30.6174 23.4737C30.2349 22.4917 29.5265 21.6416 28.5898 21.0403C27.6531 20.439 26.5341 20.1161 25.3869 20.1161V18.8572H22.6136V20.1161C21.1425 20.1161 19.7317 20.6467 18.6915 21.591C17.6513 22.5354 17.0669 23.8163 17.0669 25.1518C17.0669 26.4874 17.6513 27.7682 18.6915 28.7126C19.7317 29.657 21.1425 30.1875 22.6136 30.1875V35.2232C21.4072 35.2232 20.3796 34.5245 19.9969 33.5451C19.9401 33.3849 19.8485 33.2366 19.7275 33.109C19.6065 32.9815 19.4586 32.8773 19.2924 32.8026C19.1263 32.7278 18.9453 32.6841 18.7603 32.674C18.5752 32.6639 18.3898 32.6876 18.2149 32.7436C18.0401 32.7997 17.8795 32.887 17.7425 33.0005C17.6055 33.1139 17.4949 33.2511 17.4174 33.404C17.3398 33.5569 17.2968 33.7224 17.2909 33.8906C17.285 34.0589 17.3164 34.2265 17.3831 34.3835C17.7656 35.3655 18.4739 36.2156 19.4106 36.8169C20.3474 37.4182 21.4664 37.7411 22.6136 37.7411V39H25.3869V37.7411C26.858 37.7411 28.2688 37.2106 29.309 36.2662C30.3492 35.3218 30.9336 34.0409 30.9336 32.7054C30.9336 31.3698 30.3492 30.089 29.309 29.1446C28.2688 28.2002 26.858 27.6697 25.3869 27.6697V22.634C25.9604 22.6338 26.5199 22.7951 26.9883 23.0957C27.4567 23.3962 27.8109 23.8212 28.0021 24.3121C28.1246 24.627 28.3798 24.8848 28.7117 25.0288C28.876 25.1001 29.0541 25.1413 29.236 25.1501C29.4178 25.1589 29.5998 25.1351 29.7715 25.0801C29.9433 25.025 30.1013 24.9398 30.2368 24.8293C30.3722 24.7187 30.4824 24.5851 30.5609 24.4359C30.6395 24.2867 30.6849 24.125 30.6946 23.9599C30.7043 23.7948 30.678 23.6296 30.6174 23.4737ZM22.6136 22.634C21.878 22.634 21.1726 22.8992 20.6525 23.3714C20.1324 23.8436 19.8402 24.484 19.8402 25.1518C19.8402 25.8196 20.1324 26.46 20.6525 26.9322C21.1726 27.4044 21.878 27.6697 22.6136 27.6697V22.634ZM25.3869 35.2232C26.1224 35.2232 26.8278 34.958 27.3479 34.4858C27.868 34.0136 28.1602 33.3732 28.1602 32.7054C28.1602 32.0376 27.868 31.3972 27.3479 30.925C26.8278 30.4528 26.1224 30.1875 25.3869 30.1875V35.2232Z"
              fill="#E9E9EB"/>
        <path id="Vector_2" fill-rule="evenodd" clip-rule="evenodd"
              d="M8.38649 3.27652C11.9197 1.77515 17.7162 0 24.0599 0C30.2711 0 35.915 1.70139 39.4295 3.18276L39.6282 3.26652C40.6879 3.72156 41.5431 4.1516 42.1449 4.50038L36.8264 11.2509C49.0875 22.1343 58.5584 45 24.0599 45C-10.4386 45 -1.22258 22.5494 11.1451 11.2509L5.86112 4.50038C6.26858 4.26911 6.78546 4.00033 7.40168 3.71531C7.70691 3.5728 8.03518 3.42529 8.38649 3.27652ZM33.4084 11.1622L37.6658 5.75798C33.7064 6.0055 28.9954 6.81307 24.4602 7.95316C21.2207 8.76573 17.6212 8.64197 14.2881 8.10818C13.4482 7.97297 12.6141 7.81203 11.7872 7.62564L14.5516 11.1597C20.4763 12.9911 27.4822 12.9911 33.4084 11.1622ZM12.8887 13.2886C19.8212 15.6138 28.1532 15.6138 35.0857 13.2861C37.9795 15.9347 40.4002 18.9446 42.2673 22.2156C44.2139 25.6634 45.2736 29.1099 45.1008 32.0802C44.9338 34.9467 43.6351 37.3956 40.6692 39.2158C37.578 41.1122 32.3789 42.4998 24.0585 42.4998C15.7293 42.4998 10.5058 41.1359 7.38584 39.2608C4.39831 37.4644 3.08667 35.0479 2.90094 32.2202C2.70657 29.2824 3.74321 25.8534 5.68259 22.3819C7.5327 19.0716 10.1142 15.8851 12.8887 13.2886ZM11.2329 4.89541C12.3847 5.19293 13.5884 5.4517 14.8093 5.64797C17.9049 6.14301 21.009 6.21552 23.6582 5.54921C26.7454 4.76833 29.8853 4.15418 33.0599 3.71031C30.4107 3.01775 27.3123 2.50021 24.0585 2.50021C19.0984 2.50021 14.4724 3.70156 11.2329 4.89541Z"
              fill="#E9E9EB"/>
    </g>
</svg>
