<svg width="70" height="70" viewBox="0 0 70 70" fill="none" xmlns="http://www.w3.org/2000/svg">
    <g clip-path="url(#clip0_122_4776)">
        <path d="M34.9403 0C16.7353 0 1.82182 14.1655 0.405518 32.1659L18.9795 39.9157C20.5529 38.8285 22.4554 38.1952 24.5001 38.1952C24.6846 38.1952 24.8666 38.2002 25.0461 38.2101L33.307 26.1267V25.9572C33.307 18.6862 39.1692 12.7691 46.3754 12.7691C53.5816 12.7691 59.4437 18.6862 59.4437 25.9572C59.4437 33.2282 53.5816 39.1477 46.3754 39.1477C46.2756 39.1477 46.1784 39.1452 46.0787 39.1427L34.2969 47.623C34.3044 47.7801 34.3094 47.9372 34.3094 48.0918C34.3094 53.5526 29.9084 57.9934 24.5001 57.9934C19.7525 57.9934 15.7803 54.5724 14.8827 50.0442L1.5974 44.5012C5.71165 59.1803 19.0767 69.9422 34.9403 69.9422C54.0802 69.9422 69.5947 54.2831 69.5947 34.9711C69.5947 15.6566 54.0802 0 34.9403 0ZM22.1223 53.0628L17.8659 51.2875C18.6189 52.8733 19.9255 54.1999 21.6585 54.928C25.4037 56.5038 29.7224 54.711 31.2833 50.9284C32.0388 49.0982 32.0438 47.0785 31.2958 45.2433C30.5477 43.4081 29.1339 41.9768 27.3212 41.2138C25.5184 40.4583 23.5884 40.4857 21.8929 41.1315L26.2914 42.9667C29.0541 44.1287 30.3607 47.3303 29.2087 50.118C28.0592 52.9057 24.885 54.2248 22.1223 53.0628ZM55.0836 25.9574C55.0836 21.1126 51.1763 17.1679 46.3764 17.1679C41.5739 17.1679 37.6666 21.1126 37.6666 25.9574C37.6666 30.8023 41.5739 34.7444 46.3764 34.7444C51.1763 34.7444 55.0836 30.8023 55.0836 25.9574ZM39.8484 25.9425C39.8484 22.297 42.7783 19.3422 46.3889 19.3422C50.0019 19.3422 52.9317 22.297 52.9317 25.9425C52.9317 29.5879 50.0019 32.5427 46.3889 32.5427C42.7783 32.5427 39.8484 29.5879 39.8484 25.9425Z" fill="#E9E9EB"/>
    </g>
    <defs>
        <clipPath id="clip0_122_4776">
            <rect width="70" height="70" fill="white"/>
        </clipPath>
    </defs>
</svg>
