<svg xmlns="http://www.w3.org/2000/svg" width="50" height="50" viewBox="0 0 50 50" fill="none">
    <path d="M45.784 5.55552C45.7673 5.47456 45.7277 5.40009 45.6701 5.34085C45.6125 5.28161 45.5392 5.24007 45.4588 5.22112C40.0991 3.90919 27.7179 8.58381 21.003 15.2993C19.8062 16.4872 18.715 17.777 17.7416 19.1542C15.6718 18.9668 13.6021 19.1246 11.8398 19.894C6.86349 22.0839 5.41564 27.8031 5.01154 30.2583C4.98964 30.3928 4.99899 30.5306 5.03887 30.6609C5.07874 30.7912 5.14806 30.9106 5.24146 31.0098C5.33486 31.109 5.44983 31.1854 5.57746 31.233C5.70509 31.2805 5.84195 31.298 5.97743 31.2842L13.9677 30.4062C13.9733 31.0094 14.0094 31.6119 14.0761 32.2114C14.1178 32.6257 14.3026 33.0126 14.5985 33.3053L17.6923 36.4017C17.9851 36.6981 18.372 36.883 18.7863 36.9245C19.3817 36.9909 19.9801 37.0271 20.5792 37.033L19.703 45.0229C19.6893 45.1584 19.7069 45.2951 19.7544 45.4226C19.802 45.5501 19.8782 45.665 19.9772 45.7584C20.0762 45.8517 20.1953 45.921 20.3253 45.9609C20.4553 46.0009 20.5927 46.0103 20.727 45.9886C23.1812 45.5941 28.9075 44.145 31.0827 39.1656C31.8515 37.3999 32.0092 35.3393 31.8318 33.2777C33.2119 32.3044 34.5044 31.2122 35.6944 30.0137C42.434 23.306 47.0752 11.187 45.784 5.55552ZM29.7039 21.3243C29.1152 20.7353 28.7143 19.9848 28.5518 19.1677C28.3894 18.3507 28.4727 17.5037 28.7912 16.734C29.1097 15.9643 29.6491 15.3065 30.3412 14.8436C31.0333 14.3807 31.847 14.1337 32.6794 14.1337C33.5118 14.1337 34.3255 14.3807 35.0177 14.8436C35.7098 15.3065 36.2492 15.9643 36.5677 16.734C36.8862 17.5037 36.9695 18.3507 36.807 19.1677C36.6446 19.9848 36.2436 20.7353 35.655 21.3243C35.2645 21.7159 34.8007 22.0266 34.2901 22.2386C33.7795 22.4506 33.2322 22.5597 32.6794 22.5597C32.1267 22.5597 31.5793 22.4506 31.0687 22.2386C30.5581 22.0266 30.0943 21.7159 29.7039 21.3243Z" stroke="#E9E9EB" stroke-width="3" stroke-linecap="round" stroke-linejoin="round"/>
    <path d="M10.2788 34C9.34417 34.1147 8.47471 34.5384 7.80844 35.2037C6.15656 36.8612 6 43 6 43C6 43 12.1425 42.8434 13.7953 41.1897C14.4634 40.5245 14.8877 39.6536 15 38.7175" stroke="#E9E9EB" stroke-width="3" stroke-linecap="round" stroke-linejoin="round"/>
</svg>