<svg xmlns="http://www.w3.org/2000/svg" width="42" height="42" viewBox="0 0 42 42" fill="none">
    <path d="M41.1802 22.9803C41.7051 22.4552 42 21.7432 42 21.0007C42 20.2582 41.7051 19.5462 41.1802 19.0211L33.0784 10.9193L37.1384 6.91257C37.7373 7.06164 38.3686 7.00891 38.9344 6.76255C39.5002 6.51618 39.9689 6.08996 40.2677 5.55002C40.5666 5.01007 40.6789 4.38659 40.5872 3.77632C40.4955 3.16605 40.2049 2.6031 39.7606 2.17482C39.3163 1.74654 38.743 1.47688 38.1298 1.40768C37.5165 1.33848 36.8976 1.4736 36.369 1.79209C35.8404 2.11057 35.4317 2.59461 35.2063 3.1691C34.9809 3.74359 34.9514 4.37641 35.1224 4.96938L31.0988 8.93976L22.9803 0.819798C22.4552 0.294882 21.7432 0 21.0007 0C20.2582 0 19.5462 0.294882 19.0211 0.819798L10.9193 8.92436L6.91257 4.86158C7.06087 4.26259 7.00736 3.6314 6.76033 3.06594C6.51329 2.50047 6.08656 2.03233 5.54631 1.73414C5.00606 1.43596 4.38251 1.32439 3.77239 1.41676C3.16227 1.50913 2.59969 1.80026 2.17191 2.245C1.74414 2.68973 1.47509 3.26321 1.40651 3.87646C1.33793 4.48971 1.47364 5.10845 1.7926 5.6367C2.11156 6.16495 2.59593 6.57317 3.17057 6.79804C3.74522 7.0229 4.37801 7.05184 4.97078 6.88037L8.93976 10.9025L0.819798 19.0211C0.294882 19.5462 0 20.2582 0 21.0007C0 21.7432 0.294882 22.4552 0.819798 22.9803L8.93976 31.0988L4.97078 35.121C4.37926 34.9507 3.74806 34.9802 3.17502 35.205C2.60198 35.4298 2.11909 35.8374 1.80122 36.3645C1.48335 36.8916 1.34823 37.5089 1.41683 38.1206C1.48542 38.7324 1.75388 39.3044 2.18061 39.748C2.60734 40.1917 3.16849 40.4822 3.77709 40.5745C4.3857 40.6668 5.00775 40.5558 5.54685 40.2587C6.08595 39.9615 6.51197 39.4948 6.75888 38.931C7.0058 38.3671 7.05982 37.7375 6.91257 37.1398L10.9193 33.0798L19.0211 41.1802C19.5462 41.7051 20.2582 42 21.0007 42C21.7432 42 22.4552 41.7051 22.9803 41.1802L31.1003 33.0616L35.121 37.032C34.9507 37.6235 34.9802 38.2547 35.205 38.8278C35.4298 39.4008 35.8374 39.8837 36.3645 40.2016C36.8916 40.5195 37.5089 40.6546 38.1206 40.586C38.7324 40.5174 39.3044 40.2489 39.748 39.8222C40.1917 39.3955 40.4822 38.8343 40.5745 38.2257C40.6668 37.6171 40.5558 36.995 40.2587 36.4559C39.9615 35.9169 39.4948 35.4908 38.931 35.2439C38.3671 34.997 37.7375 34.943 37.1398 35.0902L33.0798 31.0821L41.1802 22.9803ZM21.0007 39.2006L2.80079 21.0007L21.0007 2.80079L39.2006 21.0007L21.0007 39.2006Z" fill="#E9E9EB"/>
</svg>