<svg width="30" height="30" viewBox="0 0 30 30" fill="none" xmlns="http://www.w3.org/2000/svg">
    <path d="M14.9743 0C7.17223 0 0.780722 6.07092 0.173737 13.7854L8.13401 17.1067C8.80831 16.6408 9.62368 16.3694 10.5 16.3694C10.579 16.3694 10.6571 16.3715 10.734 16.3758L14.2744 11.1972V11.1245C14.2744 8.00836 16.7868 5.47248 19.8751 5.47248C22.9635 5.47248 25.4758 8.00836 25.4758 11.1245C25.4758 14.2406 22.9635 16.7776 19.8751 16.7776C19.8324 16.7776 19.7907 16.7765 19.7479 16.7754L14.6986 20.4099C14.7018 20.4772 14.704 20.5445 14.704 20.6108C14.704 22.9511 12.8178 24.8543 10.5 24.8543C8.46528 24.8543 6.76295 23.3882 6.37824 21.4475L0.684545 19.0719C2.44779 25.363 8.17568 29.9752 14.9743 29.9752C23.1772 29.9752 29.8262 23.2642 29.8262 14.9876C29.8262 6.70997 23.1772 0 14.9743 0ZM9.48091 22.7412L7.65675 21.9803C7.97948 22.66 8.53945 23.2285 9.28215 23.5406C10.8872 24.2159 12.7381 23.4476 13.4071 21.8265C13.7309 21.0421 13.733 20.1765 13.4124 19.39C13.0918 18.6035 12.4859 17.9901 11.709 17.6631C10.9364 17.3393 10.1093 17.351 9.3826 17.6278L11.2677 18.4143C12.4517 18.9123 13.0117 20.2844 12.518 21.4792C12.0253 22.6739 10.665 23.2392 9.48091 22.7412ZM23.6072 11.1246C23.6072 9.04825 21.9327 7.35767 19.8755 7.35767C17.8173 7.35767 16.1428 9.04825 16.1428 11.1246C16.1428 13.201 17.8173 14.8905 19.8755 14.8905C21.9327 14.8905 23.6072 13.201 23.6072 11.1246ZM17.0778 11.1182C17.0778 9.55585 18.3335 8.28952 19.8809 8.28952C21.4293 8.28952 22.685 9.55585 22.685 11.1182C22.685 12.6805 21.4293 13.9469 19.8809 13.9469C18.3335 13.9469 17.0778 12.6805 17.0778 11.1182Z" fill="#0C264C"/>
</svg>
