<svg width="35" height="36" viewBox="0 0 35 36" fill="none" xmlns="http://www.w3.org/2000/svg">
    <g id="Group">
        <path id="Vector"
              d="M17.4697 0.5C8.2606 0.5 0.716448 7.58859 0 16.5963L9.39581 20.4743C10.1917 19.9303 11.1541 19.6134 12.1884 19.6134C12.2818 19.6134 12.3739 19.6159 12.4647 19.6209L16.6435 13.5742V13.4893C16.6435 9.8508 19.609 6.88984 23.2543 6.88984C26.8996 6.88984 29.865 9.8508 29.865 13.4893C29.865 17.1278 26.8996 20.09 23.2543 20.09C23.2038 20.09 23.1546 20.0888 23.1042 20.0875L17.1443 24.3312C17.1481 24.4098 17.1506 24.4884 17.1506 24.5658C17.1506 27.2984 14.9243 29.5207 12.1884 29.5207C9.78683 29.5207 7.7775 27.8087 7.32341 25.5428L0.602926 22.769C2.68416 30.1146 9.44501 35.5 17.4697 35.5C27.1519 35.5 35 27.664 35 18C35 8.33476 27.1519 0.5 17.4697 0.5ZM10.9856 27.0533L8.83249 26.1649C9.21342 26.9585 9.87437 27.6223 10.751 27.9867C12.6456 28.7753 14.8302 27.8781 15.6198 25.9852C16.002 25.0694 16.0045 24.0587 15.6261 23.1403C15.2477 22.222 14.5325 21.5057 13.6155 21.1239C12.7036 20.7458 11.7273 20.7596 10.8696 21.0827L13.0946 22.0011C14.4922 22.5826 15.1531 24.1847 14.5704 25.5797C13.9889 26.9747 12.3832 27.6348 10.9856 27.0533ZM27.6594 13.4894C27.6594 11.065 25.6829 9.09103 23.2548 9.09103C20.8254 9.09103 18.8489 11.065 18.8489 13.4894C18.8489 15.9139 20.8254 17.8866 23.2548 17.8866C25.6829 17.8866 27.6594 15.9139 27.6594 13.4894ZM19.9526 13.4819C19.9526 11.6577 21.4347 10.1791 23.2611 10.1791C25.0888 10.1791 26.5709 11.6577 26.5709 13.4819C26.5709 15.3062 25.0888 16.7848 23.2611 16.7848C21.4347 16.7848 19.9526 15.3062 19.9526 13.4819Z"
              fill="currentColor"/>
    </g>
</svg>
