<svg width="45" height="45" viewBox="0 0 45 45" fill="none" xmlns="http://www.w3.org/2000/svg">
    <g id="Frame 259">
        <path id="Vector"
              d="M22.5 1C10.632 1 1 10.632 1 22.5C1 34.368 10.632 44 22.5 44C34.368 44 44 34.368 44 22.5C44 10.632 34.368 1 22.5 1ZM32.476 15.62C32.1535 19.017 30.756 27.273 30.0465 31.0785C29.7455 32.691 29.1435 33.2285 28.5845 33.293C27.3375 33.4005 26.3915 32.476 25.1875 31.6805C23.2955 30.4335 22.2205 29.6595 20.393 28.4555C18.2645 27.058 19.6405 26.284 20.866 25.037C21.1885 24.7145 26.6925 19.705 26.8 19.2535C26.8149 19.1851 26.8129 19.1141 26.7942 19.0467C26.7755 18.9792 26.7406 18.9174 26.6925 18.8665C26.5635 18.759 26.3915 18.802 26.241 18.8235C26.0475 18.8665 23.0375 20.866 17.168 24.822C16.308 25.4025 15.534 25.7035 14.846 25.682C14.072 25.6605 12.61 25.252 11.5135 24.8865C10.159 24.4565 9.1055 24.22 9.1915 23.4675C9.2345 23.0805 9.772 22.6935 10.7825 22.285C17.0605 19.5545 21.2315 17.7485 23.317 16.8885C29.294 14.3945 30.5195 13.9645 31.3365 13.9645C31.5085 13.9645 31.917 14.0075 32.175 14.2225C32.39 14.3945 32.4545 14.631 32.476 14.803C32.4545 14.932 32.4975 15.319 32.476 15.62Z"
              fill="currentColor"/>
    </g>
</svg>
