<svg width="45" height="45" viewBox="0 0 45 45" fill="none" xmlns="http://www.w3.org/2000/svg">
    <g id="entypo-social:vk-with-circle">
        <path id="Vector"
              d="M21.5 1C9.62573 1 0 10.6257 0 22.5C0 34.3743 9.62573 44 21.5 44C33.3743 44 43 34.3743 43 22.5C43 10.6257 33.3743 1 21.5 1ZM29.7685 25.2569C29.7685 25.2569 31.6699 27.1337 32.138 28.0049C32.1515 28.0228 32.1582 28.0407 32.1627 28.0497C32.353 28.3699 32.3978 28.6185 32.3037 28.8044C32.147 29.1135 31.6095 29.2658 31.4258 29.2792H28.0665C27.8335 29.2792 27.3453 29.2188 26.7541 28.8111C26.2994 28.4931 25.8515 27.9713 25.4148 27.4629C24.7631 26.7059 24.1987 26.052 23.6298 26.052C23.5576 26.0519 23.4858 26.0632 23.4171 26.0856C22.9871 26.2244 22.4361 26.8381 22.4361 28.473C22.4361 28.9836 22.033 29.277 21.7486 29.277H20.21C19.6859 29.277 16.9559 29.0933 14.5371 26.5424C11.5764 23.4182 8.9113 17.1519 8.88891 17.0936C8.72094 16.6883 9.06807 16.471 9.44656 16.471H12.8395C13.2919 16.471 13.4397 16.7465 13.5428 16.9906C13.6637 17.2751 14.1071 18.406 14.835 19.6781C16.0153 21.752 16.7386 22.5941 17.3187 22.5941C17.4275 22.5928 17.5343 22.5651 17.63 22.5134C18.387 22.0924 18.2459 19.3937 18.2123 18.8338C18.2123 18.7285 18.2101 17.6267 17.8226 17.0981C17.5449 16.7152 17.0723 16.5696 16.7857 16.5158C16.9017 16.3557 17.0546 16.2259 17.2314 16.1373C17.7509 15.8776 18.6871 15.8395 19.6165 15.8395H20.1339C21.1417 15.8529 21.4015 15.9179 21.7665 16.0097C22.5056 16.1866 22.5212 16.6636 22.4563 18.2963C22.4361 18.7599 22.416 19.284 22.416 19.9021C22.416 20.0365 22.4093 20.1798 22.4093 20.3321C22.3869 21.163 22.36 22.1058 22.9468 22.4933C23.0233 22.5413 23.1117 22.5669 23.2021 22.5672C23.4059 22.5672 24.0195 22.5672 25.6813 19.7162C26.1938 18.7985 26.6391 17.845 27.0139 16.863C27.0474 16.8047 27.146 16.6256 27.2624 16.5561C27.3484 16.5123 27.4437 16.49 27.5402 16.4912H31.5289C31.9633 16.4912 32.2612 16.5561 32.3172 16.7241C32.4157 16.9906 32.2993 17.8036 30.4785 20.2694L29.6655 21.3421C28.0149 23.5056 28.0149 23.6153 29.7685 25.2569Z"
              fill="currentColor"/>
    </g>
</svg>
