<svg width="100" height="47" viewBox="0 0 100 47" fill="none" xmlns="http://www.w3.org/2000/svg">
<path d="M11.5179 23.5238C9.351 23.5238 7.45496 23.1326 5.82979 22.3501C4.20461 21.5475 2.94059 20.444 2.03772 19.0395C1.15491 17.615 0.713501 15.9698 0.713501 14.1038C0.713501 12.2579 1.03452 10.5625 1.67657 9.01762C2.33867 7.47271 3.27164 6.13846 4.47548 5.01488C5.67931 3.89131 7.10384 3.02856 8.74908 2.42664C10.4144 1.80466 12.2502 1.49367 14.2566 1.49367C16.4636 1.49367 18.3597 1.84479 19.9447 2.54703C21.5498 3.2292 22.844 4.25245 23.8271 5.6168L18.7409 9.55935C18.0587 8.67654 17.3364 8.07462 16.574 7.7536C15.8116 7.41251 14.9288 7.24197 13.9256 7.24197C13.0026 7.24197 12.17 7.40248 11.4276 7.72351C10.6852 8.02446 10.0432 8.46587 9.50148 9.04772C8.97982 9.60951 8.57854 10.2816 8.29764 11.0641C8.01675 11.8466 7.8763 12.7094 7.8763 13.6524C7.8763 14.475 8.05688 15.1973 8.41803 15.8193C8.79924 16.4413 9.33093 16.9228 10.0131 17.2639C10.7153 17.605 11.548 17.7755 12.5111 17.7755C13.3136 17.7755 14.1162 17.6451 14.9187 17.3843C15.7213 17.1034 16.5439 16.6319 17.3866 15.9698L20.0651 21.0259C18.9616 21.8284 17.6775 22.4504 16.2128 22.8918C14.7482 23.3131 13.1832 23.5238 11.5179 23.5238ZM14.1061 19.9424L15.7012 11.9369H21.8709L20.0651 21.0259L14.1061 19.9424Z" fill="#E9E9EB"/>
<path d="M29.0804 23.3432C27.997 23.3432 26.9336 23.0523 25.8903 22.4704C24.847 21.8685 23.9842 21.0058 23.302 19.8822C22.6399 18.7386 22.3089 17.3542 22.3089 15.729C22.3089 14.3646 22.5396 13.1107 23.0011 11.967C23.4626 10.8234 24.0946 9.83021 24.8971 8.98753C25.7197 8.12478 26.6527 7.46267 27.696 7.0012C28.7594 6.51967 29.883 6.27891 31.0668 6.27891C32.3509 6.27891 33.4644 6.53974 34.4074 7.0614C35.3504 7.58306 36.0225 8.46587 36.4238 9.70983C36.8452 10.9337 36.8853 12.6291 36.5442 14.796C36.2633 16.5616 35.7818 18.0865 35.0996 19.3706C34.4375 20.6547 33.6048 21.6378 32.6017 22.32C31.5985 23.0021 30.4247 23.3432 29.0804 23.3432ZM31.6386 17.9862C32.2405 17.9862 32.7622 17.8357 33.2036 17.5347C33.645 17.2137 33.9861 16.7723 34.2268 16.2105C34.4877 15.6487 34.6181 14.9866 34.6181 14.2242C34.6181 13.4618 34.3974 12.8398 33.956 12.3583C33.5346 11.8767 32.9427 11.636 32.1803 11.636C31.5985 11.636 31.0768 11.7965 30.6153 12.1175C30.1739 12.4185 29.8228 12.8498 29.562 13.4116C29.3212 13.9734 29.2008 14.6355 29.2008 15.3979C29.2008 16.1604 29.4115 16.7823 29.8328 17.2639C30.2742 17.7454 30.8762 17.9862 31.6386 17.9862ZM33.2337 23.0423L33.6851 20.8152L34.7986 14.796L35.6714 8.83705L36.1229 6.57986H42.9245L39.6441 23.0423H33.2337Z" fill="#E9E9EB"/>
<path d="M41.7266 23.0423L46.1807 0.711182H52.9824L51.3572 8.83705L49.8825 14.796L48.8593 19.7317L48.1972 23.0423H41.7266ZM53.5843 23.3432C52.5009 23.3432 51.5278 23.1627 50.665 22.8015C49.8023 22.4203 49.1201 21.7983 48.6185 20.9356C48.137 20.0528 47.8962 18.869 47.8962 17.3843C47.8962 15.9798 48.0567 14.6154 48.3777 13.2912C48.6988 11.967 49.1803 10.7832 49.8223 9.73992C50.4644 8.67654 51.2669 7.83386 52.23 7.21188C53.1931 6.5899 54.3066 6.27891 55.5706 6.27891C56.6741 6.27891 57.7375 6.57986 58.7608 7.18178C59.8041 7.76363 60.6568 8.61635 61.3189 9.73992C62.0011 10.8635 62.3422 12.2479 62.3422 13.8931C62.3422 15.2374 62.1115 16.4914 61.65 17.6551C61.1885 18.7988 60.5465 19.802 59.7239 20.6647C58.9213 21.5074 57.9883 22.1695 56.9249 22.651C55.8816 23.1125 54.7681 23.3432 53.5843 23.3432ZM52.4708 17.9862C53.0727 17.9862 53.5943 17.8357 54.0357 17.5347C54.4771 17.2137 54.8182 16.7723 55.059 16.2105C55.3198 15.6487 55.4502 14.9866 55.4502 14.2242C55.4502 13.4618 55.2295 12.8398 54.7881 12.3583C54.3668 11.8767 53.7749 11.636 53.0125 11.636C52.4306 11.636 51.909 11.7965 51.4475 12.1175C51.0061 12.4185 50.655 12.8498 50.3942 13.4116C50.1534 13.9734 50.033 14.6355 50.033 15.3979C50.033 16.1604 50.2437 16.7823 50.665 17.2639C51.1064 17.7454 51.7083 17.9862 52.4708 17.9862Z" fill="#E9E9EB"/>
<path d="M71.7079 23.3432C69.9021 23.3432 68.3171 23.0322 66.9527 22.4103C65.6084 21.7883 64.5551 20.9055 63.7927 19.7618C63.0302 18.6182 62.649 17.2739 62.649 15.729C62.649 13.9232 63.0704 12.3081 63.913 10.8836C64.7557 9.45903 65.9395 8.33545 67.4643 7.51283C69.0093 6.69022 70.805 6.27891 72.8515 6.27891C74.6171 6.27891 76.1219 6.5899 77.3659 7.21188C78.6098 7.83386 79.5629 8.68657 80.225 9.77002C80.8871 10.8535 81.2181 12.1075 81.2181 13.532C81.2181 14.0336 81.178 14.5252 81.0978 15.0067C81.0376 15.4882 80.9573 15.9497 80.857 16.3911H68.0663L68.6983 13.1107H77.727L74.898 13.9834C75.0585 13.3414 75.0485 12.7997 74.8679 12.3583C74.7074 11.8968 74.4265 11.5457 74.0252 11.3049C73.624 11.0441 73.1324 10.9137 72.5505 10.9137C71.7279 10.9137 71.0759 11.1344 70.5943 11.5758C70.1128 12.0172 69.7617 12.589 69.541 13.2912C69.3403 13.9935 69.24 14.7258 69.24 15.4882C69.24 16.5115 69.5109 17.2438 70.0526 17.6852C70.6144 18.1066 71.427 18.3172 72.4903 18.3172C73.1123 18.3172 73.7343 18.2269 74.3563 18.0464C74.9783 17.8457 75.5501 17.5548 76.0718 17.1736L78.9008 21.2967C77.7772 22.0591 76.6034 22.5908 75.3795 22.8918C74.1757 23.1927 72.9518 23.3432 71.7079 23.3432Z" fill="#E9E9EB"/>
<path d="M49.755 40.8666C48.491 40.8666 47.3774 40.6057 46.4144 40.0841C45.4714 39.5624 44.7892 38.6796 44.3678 37.4356C43.9666 36.1917 43.9365 34.4963 44.2776 32.3495C44.5785 30.5638 45.06 29.0389 45.7222 27.7749C46.3843 26.4908 47.2169 25.5077 48.2201 24.8255C49.2434 24.1433 50.4171 23.8022 51.7413 23.8022C52.8448 23.8022 53.9082 24.1032 54.9315 24.7051C55.9748 25.287 56.8275 26.1397 57.4896 27.2633C58.1718 28.3868 58.5129 29.7712 58.5129 31.4165C58.5129 32.7608 58.2821 34.0148 57.8207 35.1785C57.3592 36.3221 56.7172 37.3253 55.8945 38.188C55.092 39.0307 54.159 39.6928 53.0956 40.1744C52.0523 40.6358 50.9388 40.8666 49.755 40.8666ZM36.7235 46.4042L41.1777 24.1032H47.5881L47.1367 26.3303L46.0231 32.3495L45.1503 38.3084L43.5252 46.4042H36.7235ZM48.6415 35.5095C49.2434 35.5095 49.765 35.359 50.2064 35.0581C50.6478 34.7371 50.9889 34.2957 51.2297 33.7339C51.4905 33.1721 51.6209 32.51 51.6209 31.7475C51.6209 30.9851 51.4002 30.3631 50.9588 29.8816C50.5375 29.4001 49.9456 29.1593 49.1832 29.1593C48.6013 29.1593 48.0797 29.3198 47.6182 29.6408C47.1768 29.9418 46.8257 30.3732 46.5648 30.935C46.3241 31.4967 46.2037 32.1588 46.2037 32.9213C46.2037 33.6837 46.4144 34.3057 46.8357 34.7872C47.2771 35.2687 47.879 35.5095 48.6415 35.5095Z" fill="#4DF292"/>
<path d="M65.5913 40.8666C64.5078 40.8666 63.4444 40.5756 62.4011 39.9938C61.3578 39.3919 60.495 38.5291 59.8129 37.4056C59.1508 36.2619 58.8197 34.8775 58.8197 33.2523C58.8197 31.888 59.0504 30.634 59.5119 29.4904C59.9734 28.3467 60.6054 27.3536 61.408 26.5109C62.2306 25.6481 63.1635 24.986 64.2069 24.5245C65.2702 24.043 66.3938 23.8022 67.5776 23.8022C68.8617 23.8022 69.9752 24.0631 70.9182 24.5847C71.8612 25.1064 72.5334 25.9892 72.9346 27.2332C73.356 28.4571 73.3961 30.1525 73.055 32.3194C72.7741 34.085 72.2926 35.6098 71.6104 36.8939C70.9483 38.178 70.1157 39.1611 69.1125 39.8433C68.1093 40.5255 66.9355 40.8666 65.5913 40.8666ZM68.1494 35.5095C68.7513 35.5095 69.273 35.359 69.7144 35.0581C70.1558 34.7371 70.4969 34.2957 70.7376 33.7339C70.9985 33.1721 71.1289 32.51 71.1289 31.7475C71.1289 30.9851 70.9082 30.3631 70.4668 29.8816C70.0454 29.4001 69.4536 29.1593 68.6911 29.1593C68.1093 29.1593 67.5876 29.3198 67.1262 29.6408C66.6847 29.9418 66.3336 30.3732 66.0728 30.935C65.832 31.4967 65.7116 32.1588 65.7116 32.9213C65.7116 33.6837 65.9223 34.3057 66.3437 34.7872C66.7851 35.2687 67.387 35.5095 68.1494 35.5095ZM69.7445 40.5656L70.1959 38.3385L71.3095 32.3194L72.1822 26.3604L72.6337 24.1032H79.4353L76.1549 40.5656H69.7445Z" fill="#4DF292"/>
<path d="M80.946 46.7052C80.0431 46.7052 79.1503 46.5747 78.2675 46.3139C77.3646 46.0531 76.6423 45.712 76.1006 45.2907L79.05 40.5656C79.3911 40.8264 79.7723 41.0371 80.1936 41.1976C80.615 41.3581 81.0564 41.4384 81.5178 41.4384C82.0596 41.4384 82.501 41.308 82.842 41.0471C83.1831 40.8064 83.5041 40.4352 83.8051 39.9336L84.8585 38.188L85.3701 37.5259L93.2251 24.1032H99.8763L89.7641 40.8967C88.8612 42.4015 87.9784 43.5752 87.1156 44.4179C86.2529 45.2606 85.3199 45.8524 84.3167 46.1935C83.3336 46.5346 82.21 46.7052 80.946 46.7052ZM83.3236 41.318L79.5917 24.1032H86.3633L88.801 36.924L83.3236 41.318Z" fill="#4DF292"/>
</svg>